<svg viewBox="0 0 31 17" fill="none" xmlns="http://www.w3.org/2000/svg"><path d="M12.596 9.534h-7.39a.616.616 0 000 1.234h7.39a.617.617 0 000-1.234zM12.596 12.001h-7.39a.616.616 0 000 1.234h7.39a.617.617 0 000-1.234zM24.913 8.302h-1.232a1.849 1.849 0 00-1.847 1.85v1.233a1.85 1.85 0 001.848 1.85h1.233a1.848 1.848 0 001.847-1.849v-1.233a1.852 1.852 0 00-1.849-1.851zm.617 3.082a.616.616 0 01-.617.617h-1.232a.616.616 0 01-.615-.617v-1.233a.62.62 0 01.615-.617h1.232a.618.618 0 01.617.617v1.233z" fill="#101514"/><path d="M27.376.934H3.973a3.082 3.082 0 00-3.08 3.083v9.834a3.09 3.09 0 003.08 3.083h23.403a3.082 3.082 0 002.177-.905 3.093 3.093 0 00.903-2.178V4.017a3.094 3.094 0 00-.903-2.179 3.08 3.08 0 00-2.177-.904zM3.973 2.167h23.403a1.848 1.848 0 011.831 1.6H2.142a1.854 1.854 0 011.83-1.6zm23.403 13.534H3.973a1.849 1.849 0 01-1.848-1.85V6.675h27.099v7.178a1.85 1.85 0 01-1.848 1.85z" fill="#101514"/></svg>