<svg fill="none" height="187" viewBox="0 0 222 187" width="222" xmlns="http://www.w3.org/2000/svg" xmlns:xlink="http://www.w3.org/1999/xlink"><clipPath id="a"><path d="m0 0h221.271v187h-221.271z"></path></clipPath><mask id="b" height="175" maskUnits="userSpaceOnUse" width="199" x="11" y="0"><path d="m11.9203 0h197.4307v174.313h-197.4307z" fill="#fff" style="--darkreader-inline-fill: var(--darkreader-text-ffffff, #e8e6e3);" data-darkreader-inline-fill=""></path></mask><g clip-path="url(#a)"><path d="m110.635 187c61.103 0 110.636-5.838 110.636-13.038 0-7.201-49.533-13.038-110.636-13.038-61.1018 0-110.635 5.837-110.635 13.038 0 7.2 49.5332 13.038 110.635 13.038z" fill="#999ba0" opacity=".3" style="--darkreader-inline-fill: var(--darkreader-background-999ba0, #50565a);" data-darkreader-inline-fill=""></path><g clip-rule="evenodd" fill-rule="evenodd" mask="url(#b)"><path d="m84.3072 164.817h15.1477v-44.091h-15.1477z" fill="#a2dad6" style="--darkreader-inline-fill: var(--darkreader-background-a2dad6, #255c59);" data-darkreader-inline-fill=""></path><path d="m111.781 116.275h8.529v-4.451h-8.529zm-26.9381 21.976h52.5731v-18.154h-52.5731z" fill="#6e6f73" style="--darkreader-inline-fill: var(--darkreader-background-6e6f73, #555c5f);" data-darkreader-inline-fill=""></path><path d="m94.14 112.71h43.811v-29.1065h-43.811z" fill="#999ba0" style="--darkreader-inline-fill: var(--darkreader-background-999ba0, #50565a);" data-darkreader-inline-fill=""></path><path d="m96.0755 110.822h39.9425v-25.3318h-39.9425z" fill="#fffffe" style="--darkreader-inline-fill: var(--darkreader-background-fffffe, #272700);" data-darkreader-inline-fill=""></path><path d="m81.6497 120.726h66.5323v-2.914h-66.5323z" fill="#a2dad6" style="--darkreader-inline-fill: var(--darkreader-background-a2dad6, #255c59);" data-darkreader-inline-fill=""></path><path d="m122.898 115.949h-13.703c-1.025 0-1.864.839-1.864 1.864h17.432c0-1.025-.839-1.864-1.865-1.864z" fill="#6e6f73" style="--darkreader-inline-fill: var(--darkreader-text-6e6f73, #a1998d);" data-darkreader-inline-fill=""></path><path d="m128.444 167.333h16.941v-46.607h-16.941z" fill="#a2dad6" style="--darkreader-inline-fill: var(--darkreader-background-a2dad6, #255c59);" data-darkreader-inline-fill=""></path><path d="m128.444 123.429h16.941v-2.703h-16.941z" fill="#73c8c0" style="--darkreader-inline-fill: var(--darkreader-text-73c8c0, #78cac2);" data-darkreader-inline-fill=""></path><path d="m79.1636 169.046c.2093.652.3963 1.608.3725 1.724-.1162 1.329-2.0972 2.424-2.7499.769-.2324-.606.0701-1.281.5595-1.585.3264-.186.7458-.209 1.1422.117l-.3495-1.002c-1.6546.023-3.3324-.093-4.9873-.233-.7224-.07-1.5846-.256-1.9575-.816l-3.3092 1.049c.606.023 1.2119.42 1.3517 1.026.1864.908-.7924 1.817-1.6779 1.584-.8622-.233-1.305-1.374-.9555-2.213.3729-.886 3.0761-1.725 4.4744-2.238.1864-.722 1.1885-1.212 2.0274-1.398.839-.186 2.1671-.279 3.6124-.256l-.7927-22.629c-1.5147.094-4.7073 0-8.2262-1.747-4.3578-2.167-10.0439-7.434-12.3976-20.182l1.608-.302c1.7477 9.508 5.7093 16.08 11.4421 18.969 4.3112 2.191 8.1795 1.561 8.2264 1.561l.932-.163.862 24.563c1.3284.093 2.6336.279 3.6357.559 0 0 0-.024-.0231-.024l.0231.024c.2563.07.4664.14.6757.233 1.3753.326 4.3815.839 4.8941 1.724.4425.769.1631 1.958-.6758 2.308-.8627.349-1.9348-.444-1.8648-1.352.047-.606.6065-1.096 1.2122-1.189l-2.5405-.466c-.0231.233-.1863.513-.5126.793-.4895.396-1.1652.489-1.794.582-.7689.116-1.5146.163-2.2373.21z" fill="#101514" style="--darkreader-inline-fill: var(--darkreader-background-101514, #0d1110);" data-darkreader-inline-fill=""></path><path d="m66.3933 109.458c-1.8876-1.142-4.1714-1.794-6.1755-1.911-2.8897-.186-5.9891.862-7.6903 3.193-1.9576 2.657-1.6312 6.898-.4894 9.811 3.0994 7.807 16.942 3.589 18.2469-3.682.606-3.332-1.2817-5.849-3.8917-7.411zm23.0717 28.757s-3.7057 5.057-11.2789 5.43c-7.5741.373-15.9868-2.167-9.4617-8.46 6.9212-6.688 20.7406 3.03 20.7406 3.03z" fill="#222347" style="--darkreader-inline-fill: var(--darkreader-background-222347, #1b1c39);" data-darkreader-inline-fill=""></path><path d="m98.0163 165.737-1.3984 5.289h5.6631l-2.3306-2.027 2.3306-4.194z" fill="#101514" style="--darkreader-inline-fill: var(--darkreader-text-101514, #dcd9d5);" data-darkreader-inline-fill=""></path><path d="m84.2908 122.159s34.0702-2.4 32.9052 9.555c-1.165 11.954-14.914 34.023-14.914 34.023h-4.2649l5.3369-14.448 2.889-18.876-35.1653.466z" fill="#12827a" style="--darkreader-inline-fill: var(--darkreader-background-12827a, #0e6862);" data-darkreader-inline-fill=""></path><path d="m60.8015 131.177s1.002 11.024 17.6409 8.926c16.6154-2.098 25.9376-1.864 25.9376-1.864l-12.5146 28.663h3.7289s25.0977-30.225 16.0097-37.589c-9.089-7.364-38.4282-3.892-38.4282-3.892z" fill="#17a398" style="--darkreader-inline-fill: var(--darkreader-background-17a398, #12827a);" data-darkreader-inline-fill=""></path><path d="m85.1982 89.2302 4.6609-2.8199c-.5826-3.7519-1.2815-7.5039-2.3766-11.1388l-7.0613 1.8178c.7688 4.4277-15.8465 9.1116-18.0138 3.8682-15.4504 3.1924-1.608 50.1965-1.608 50.1965l28.5009-9.205z" fill="#4b5492" style="--darkreader-inline-fill: var(--darkreader-background-4b5492, #3c4375);" data-darkreader-inline-fill=""></path><path d="m91.864 85.1989-2.4936-10.4168-1.9103.4895c1.0952 3.6349 1.7709 7.3868 2.3767 11.1387zm-17.1281 3.4487c4.6609-1.7008 6.4549-7.1075 5.686-11.5351l-1.7247.4425c.7458 3.9382-.932 7.8771-4.8469 8.9723-4.6141 1.2353-7.597-2.1211-9.1817-6.0592-.7224.1631-1.4681.3263-2.2604.5125 2.1672 5.2435 6.2454 9.625 12.3277 7.667zm-7.6195-17.6408-.4195.6526s.8157 1.0488 2.1209.8624l.303-.4894z" fill="#fffffe" style="--darkreader-inline-fill: var(--darkreader-text-fffffe, #ffffcb);" data-darkreader-inline-fill=""></path><path d="m78.6979 77.5551-2.5636.6527c-.9551.2563-1.9108-.3964-2.0506-1.3515l-.1166-.7927 3.4256-7.9231-6.5249-4.1014-4.4277 5.2666.6991 1.072c-.0467.0699-.1632.233-.3962.6058.4194.5826.9321 1.0254 1.841 1.1419 0 0-.4194 1.6546-2.5401.2564-.1399.5593-.5593 1.2584-.303 1.7245.4894.9322 1.9576 1.3985 1.9576 1.3985l.5826 4.1945c-1.072.1863-2.2838.4425-3.6122.7227 1.5847 3.9381 4.5676 7.2937 9.1818 6.0585 3.9152-1.0483 5.593-4.9872 4.8472-8.9254z" fill="#f9c8c7" style="--darkreader-inline-fill: var(--darkreader-text-f9c8c7, #f6abaa);" data-darkreader-inline-fill=""></path><path d="m73.9897 76.0634s4.5674-7.9931 3.6824-9.4379c-1.0721-1.771-4.1251-3.8218-4.1251-3.8218s.6059-2.4003-1.1885-2.9596c-1.7945-.5593-5.4299 4.5443.3262 7.9233l-1.0953 2.6567.7458.4427c3.0757-1.0953 3.4259 1.6546.3029 1.6546l-1.0487 2.1905z" fill="#2f3061" style="--darkreader-inline-fill: var(--darkreader-text-2f3061, #a2b4d2);" data-darkreader-inline-fill=""></path><path d="m69.4689 68.5836c.1398-.2098.3962-.2797.6059-.1399.2098.1399.2797.3963.1398.606-.1398.2098-.3962.2797-.6059.1399-.2098-.1165-.2797-.3962-.1398-.606zm1.3766-.0466c.0233 0 .0233.0233.0467.0233.0698.0233.1398-.0466.1631-.1166.0699-.3962-.0699-.7691-.3263-1.0022-.233-.2097-.536-.3029-.839-.233-.07.0233-.1166.0932-.1166.1631.0234.0699.0932.1166.1632.1166.2097-.0467.4195.0233.5827.1631.1864.1865.2797.4662.233.7691.0233.0466.0467.0933.0932.1166z" fill="#101514" style="--darkreader-inline-fill: var(--darkreader-text-101514, #dcd9d5);" data-darkreader-inline-fill=""></path><path d="m72.2664 72.0323c.0233.0233.07.0233.1166.0233.5361-.1632 1.0954-.2797 1.6548-.3729.0699 0 .1398-.0933.1165-.1632 0-.0699-.0932-.1398-.1631-.1165-.5827.0699-1.1421.2097-1.7015.3729-.0698.0233-.1165.0932-.0932.1865zm-4.5679 3.5187 1.7014.8858h-1.5848z" fill="#f29190" style="--darkreader-inline-fill: var(--darkreader-text-f29190, #f18584);" data-darkreader-inline-fill=""></path><path d="m85.2005 89.2306-.9089-5.6398 1.981 4.9872z" fill="#2f3061" style="--darkreader-inline-fill: var(--darkreader-text-2f3061, #a2b4d2);" data-darkreader-inline-fill=""></path><path d="m68.2813 79.7451.2564 1.9818-1.3052-1.7948z" fill="#f29190" style="--darkreader-inline-fill: var(--darkreader-text-f29190, #f18584);" data-darkreader-inline-fill=""></path><path d="m99.8342 110.624c-6.7581-.117-29.9223 2.679-29.9223 2.679l-3.9849-15.2405-9.4613.6526c1.0253 3.5419 3.0061 10.4869 5.0335 17.7349 2.9131 10.393 37.5423-3.613 37.5423-3.613l2.4475.933 1.864-1.049z" fill="#f9c8c7" style="--darkreader-inline-fill: var(--darkreader-background-f9c8c7, #500a09);" data-darkreader-inline-fill=""></path><path d="m65.2046 95.2422-9.4381 1.049s.2564.8858.6992 2.4235l9.4847-.6526z" fill="#fffffe" style="--darkreader-inline-fill: var(--darkreader-text-fffffe, #ffffcb);" data-darkreader-inline-fill=""></path><path d="m69.9128 113.303-2.6803.28 2.284-1.771z" fill="#f29190" style="--darkreader-inline-fill: var(--darkreader-text-f29190, #f18584);" data-darkreader-inline-fill=""></path><path d="m89.3018 121.995-27.8945 11.349-.6058-2.167z" fill="#12827a" style="--darkreader-inline-fill: var(--darkreader-text-12827a, #77ece4);" data-darkreader-inline-fill=""></path><path d="m65.9279 61.9887-.4894.3729-3.0998-4.3118.5128-.3496zm-1.9568 2.8195-.303.5361-5.5936-3.2863.303-.536zm-1.5154 3.8449-.0699.606-4.2418-.4661.0699-.606z" fill="#a2dad6" style="--darkreader-inline-fill: var(--darkreader-text-a2dad6, #99d7d2);" data-darkreader-inline-fill=""></path><path d="m87.0883 41.8534c-.9789-1.0952-4.6146 2.4935-4.6146 2.4935l1.8178 2.3304.3733-.303.6288 1.0954 1.4684-.6992 10.2537 25.308-7.6208 2.7264 2.4936 10.4169s7.5277-4.0544 10.8835-9.9505c4.124-7.3409-14.7047-32.3226-15.6837-33.4179z" fill="#f9c8c7" style="--darkreader-inline-fill: var(--darkreader-background-f9c8c7, #500a09);" data-darkreader-inline-fill=""></path><path d="m96.9912 72.056 1.0259 2.3307-2.4013-1.8412zm-12.2809-25.6108-.1163-.1864 2.4005-1.4217-.3263-1.1187.2332-.07.3725 1.2819z" fill="#f29190" style="--darkreader-inline-fill: var(--darkreader-text-f29190, #f18584);" data-darkreader-inline-fill=""></path><path d="m86.8075 46.8407-.1401-.1865.4664-.3496-.4895-1.142.2094-.0933.5826 1.3286z" fill="#f29190" style="--darkreader-inline-fill: var(--darkreader-text-f29190, #f18584);" data-darkreader-inline-fill=""></path><path d="m91.8654 166.902-2.6336 6.153h6.3625l-2.7037-2.261 2.7267-3.892z" fill="#101514" style="--darkreader-inline-fill: var(--darkreader-text-101514, #dcd9d5);" data-darkreader-inline-fill=""></path><path d="m104.38 138.24 1.748-3.497-3.846 3.497z" fill="#13827a" style="--darkreader-inline-fill: var(--darkreader-text-13827a, #78ebe3);" data-darkreader-inline-fill=""></path><path d="m32.3811 164.852-2.4003 9.462h6.6183l-2.5168-2.704 2.5168-7.364zm-13.0747 0-2.4003 9.462h6.6183l-2.5169-2.704 2.5169-7.364z" fill="#101514" style="--darkreader-inline-fill: var(--darkreader-text-101514, #dcd9d5);" data-darkreader-inline-fill=""></path><path d="m40.7704 47.5638-.6992-.0233c.0699-1.748-1.3751-3.263-1.3984-3.263l.4895-.4894c.0932.0699 1.6781 1.7247 1.6081 3.7757z" fill="#4d4d4d" style="--darkreader-inline-fill: var(--darkreader-text-4d4d4d, #b7b1a8);" data-darkreader-inline-fill=""></path><path d="m37.2053 41.1546-.2563-4.1481c-.0467-.8622-.4428-1.6545-1.1186-2.2372-.6991-.5826-1.6313-.8855-2.5402-.7923-.9088.0932-1.7011.5127-2.2604 1.2118-.536.6526-.7924 1.4915-.6992 2.3304l-.6991.0699c-.1165-1.0254.1865-2.0274.839-2.8431.6758-.8389 1.6545-1.3516 2.7499-1.4681 1.1185-.1165 2.2138.233 3.0527.9555.8157.6991 1.305 1.6545 1.375 2.7265l.233 4.1481z" fill="#101514" style="--darkreader-inline-fill: var(--darkreader-text-101514, #dcd9d5);" data-darkreader-inline-fill=""></path><path d="m39.5815 42.4363c-.4195-1.445-1.7714-2.3074-3.0066-1.9344-1.2352.3729-1.8878 1.8411-1.4683 3.2629.4195 1.445 1.7713 2.3074 3.0065 1.9345 1.2353-.3496 1.8879-1.818 1.4684-3.263z" fill="#2e2f61" style="--darkreader-inline-fill: var(--darkreader-text-2e2f61, #a2b4d3);" data-darkreader-inline-fill=""></path><path d="m63.3748 8.39015-3.146.23305-2.7033 27.2888-13.6095 13.5162c-.0932 2.7033-.7224 5.3366-2.4003 7.6903-2.7032 3.8219-7.667 3.6121-11.046 1.5846-2.3304-1.3516-3.6354-4.0315-4.1248-6.758l-7.8301-19.3889 2.0274-26.63628h-4.0548s-2.2605 7.89998-4.0549 19.62188c-1.7944 11.7218 1.5847 21.8823 4.2879 31.1106 2.7731 8.0166 3.4956 48.2856 3.4956 48.2856h29.5493v-44.8133s7.9932-10.9062 12.5142-16.9885c4.5209-6.0823 1.0953-34.74605 1.0953-34.74605z" fill="#ef7674" style="--darkreader-inline-fill: var(--darkreader-background-ef7674, #81110f);" data-darkreader-inline-fill=""></path><path d="m42.0286 49.8471c-.4195 3.5422-1.538 6.7814-5.9425 7.7135-3.9617.839-7.3407-2.0041-7.8301-5.6395h-1.9342c.4661 2.7266 1.7944 5.4065 4.1248 6.7581 3.379 2.0275 8.3428 2.2605 11.046-1.5847 1.6546-2.3536 2.3071-4.9637 2.4003-7.6902z" fill="#fffffe" style="--darkreader-inline-fill: var(--darkreader-text-fffffe, #ffffcb);" data-darkreader-inline-fill=""></path><path d="m16.4876 5.91918 1.6312-5.523016 4.3346-.396164v2.58673h-.9555v1.07197l-.8389.06992-.6292 2.19056zm46.8881 2.47019s-.4427-6.24541-1.7011-6.47845c-1.2351-.23304-3.449 0-3.449 0v2.37699h.4428v1.1885h1.3983l.1165 3.146zm-26.4743 42.22673-.2331-1.911s2.0275-.3961 1.8643-1.7011c-.1631-1.3051-.9322-9.8576-.9322-9.8576l-6.8047 1.3516 1.1885 11.652c.0699.6758-.3962 1.2817-1.072 1.3749l-2.6566.3961c.4894 3.6354 3.8685 6.4785 7.8301 5.6396 4.3811-.9322 5.4997-4.1714 5.9425-7.7136z" fill="#f9c8c7" style="--darkreader-inline-fill: var(--darkreader-background-f9c8c7, #500a09);" data-darkreader-inline-fill=""></path><path d="m49.7429 104.938s-1.3284 31.157-3.8917 37.635c-2.5635 6.479-10.2071 24.958-10.2071 24.958h-4.9638l6.4552-26.915-1.8876-28.011c-3.5422 26.939-3.4024 26.892-7.4107 40.338-3.7519 12.608-4.9637 14.565-4.9637 14.565h-4.9636s4.3345-21.788 3.8916-24.655c-.4427-2.866-1.6079-37.939-1.6079-37.939h29.5493" fill="#2e2f61" style="--darkreader-inline-fill: var(--darkreader-background-2e2f61, #25264e);" data-darkreader-inline-fill=""></path><path d="m20.6599 3.84482h-1.7014l.1399-1.37509h3.3561v.23307h-3.1464l-.0932.90896h1.445z" fill="#f29190" style="--darkreader-inline-fill: var(--darkreader-text-f29190, #f18584);" data-darkreader-inline-fill=""></path><path d="m19.1899 2.70367h-.8856l.0699-1.46832h.2331l-.0699 1.23526h.6525z" fill="#f9c8c7" style="--darkreader-inline-fill: var(--darkreader-text-f9c8c7, #f6abaa);" data-darkreader-inline-fill=""></path><path d="m61.4643 4.40499h-3.2163v-.23308h2.9833v-1.21195h.233z" fill="#f29190" style="--darkreader-inline-fill: var(--darkreader-text-f29190, #f18584);" data-darkreader-inline-fill=""></path><path d="m61.1379 5.59327h-1.0254v-.23307h.7924v-1.07211h.233zm-25.2848 39.29053 1.3518-.2331s-.1632-2.6802-1.0255-2.587c-.8391.0699-.3263 2.8201-.3263 2.8201z" fill="#f29190" style="--darkreader-inline-fill: var(--darkreader-background-f29190, #700e0d);" data-darkreader-inline-fill=""></path><path d="m32.5441 38.6614s6.5951.3961 6.362-2.377c-.233-2.7732-2.1207-2.8664-3.7985-1.1186 0 0-4.6608-.7924-4.3345 2.9363 0 0-1.2351.6059-.2797 3.8218l1.5147.3961-.3495-3.8218z" fill="#dc5858" style="--darkreader-inline-fill: var(--darkreader-text-dc5858, #de6060);" data-darkreader-inline-fill=""></path><path d="m34.3846 42.0408c0-.2565-.2097-.4429-.4427-.4429-.2332 0-.4429.2097-.4429.4429 0 .233.2097.4428.4429.4428.233 0 .4427-.2098.4427-.4428zm3.4036-.4661c0-.2565-.2098-.4429-.4429-.4429-.233 0-.4428.2098-.4428.4429 0 .233.2098.4427.4428.4427.2331 0 .4429-.1864.4429-.4427z" fill="#101514" style="--darkreader-inline-fill: var(--darkreader-text-101514, #dcd9d5);" data-darkreader-inline-fill=""></path><path d="m37.9283 45.1396-2.657.6293s.0233.2564.1166.5594c.839-.1166 1.7014-.3729 2.587-.5827 0-.3496-.0466-.606-.0466-.606z" fill="#fffffe" style="--darkreader-inline-fill: var(--darkreader-text-fffffe, #ffffcb);" data-darkreader-inline-fill=""></path><path d="m35.3878 46.3046c.1631.4661.5827 1.0254 1.515.8157.839-.1865 1.0254-.8857 1.0487-1.3984-.8856.2097-1.7247.4661-2.5637.5827zm-2.4486-5.2201c-.0233 0-.0466 0-.0932-.0233-.0933-.0466-.1166-.1632-.07-.2331.1632-.2796.4429-.4894.7692-.5593.3496-.07.6759 0 .9322.1864.0699.0466.0932.1632.0467.2331-.0467.0699-.1632.0932-.2331.0466-.1864-.1399-.4196-.1631-.6526-.1165s-.4428.1864-.5594.3962c-.0233.0466-.0932.0699-.1398.0699zm3.4491-.606c-.0467 0-.0933-.0233-.1166-.0466-.0699-.0699-.0699-.1865 0-.2564.2098-.233.5128-.3729.8624-.3962.3262-.0233.6526.0932.8856.303.07.0699.07.1864.0233.2564-.0699.0699-.1864.0699-.2563.0233-.1632-.1398-.3962-.2331-.6294-.2098-.233 0-.466.1165-.6059.2797-.0699.0233-.1166.0466-.1631.0466z" fill="#101514" style="--darkreader-inline-fill: var(--darkreader-text-101514, #dcd9d5);" data-darkreader-inline-fill=""></path><path d="m33.034 43.159c-.4196-1.445-1.7714-2.3074-3.0067-1.9345-1.2352.373-1.8878 1.8412-1.4682 3.263.4195 1.445 1.7713 2.3074 3.0065 1.9344 1.2586-.3729 1.9112-1.8412 1.4684-3.2629z" fill="#2f3061" style="--darkreader-inline-fill: var(--darkreader-text-2f3061, #a2b4d2);" data-darkreader-inline-fill=""></path><path d="m33.0332 43.1589c-.4195-1.3984-1.7014-2.2607-2.9134-1.9577.8624.2097 1.6315.9322 1.9345 1.9577.4196 1.4451-.2331 2.89-1.4683 3.263-.0233 0-.07.0233-.0932.0233.3495.0932.7224.0932 1.0721-.0233 1.2585-.373 1.9111-1.8412 1.4683-3.263z" fill="#2e2f61" style="--darkreader-inline-fill: var(--darkreader-text-2e2f61, #a2b4d3);" data-darkreader-inline-fill=""></path><path d="m38.7898 50.8962-.4196-.5594c1.0954-.8157 1.6781-1.748 1.7014-2.7968l.6992.0234c-.0465 1.2818-.6992 2.4005-1.981 3.3328z" fill="#4d4d4d" style="--darkreader-inline-fill: var(--darkreader-text-4d4d4d, #b7b1a8);" data-darkreader-inline-fill=""></path><path d="m30.353 37.542.4195 4.0088-.6759.0699-.4428-4.0088z" fill="#101514" style="--darkreader-inline-fill: var(--darkreader-text-101514, #dcd9d5);" data-darkreader-inline-fill=""></path><path d="m39.3726 50.6156c0-.4427-.3496-.7924-.7924-.7924-.4429 0-.7924.3497-.7924.7924 0 .4429.3495.7925.7924.7925.4195 0 .7924-.3496.7924-.7925z" fill="#2e2f61" style="--darkreader-inline-fill: var(--darkreader-text-2e2f61, #a2b4d3);" data-darkreader-inline-fill=""></path><path d="m36.831 50.6154.303 2.3074.6525-2.4472z" fill="#f29190" style="--darkreader-inline-fill: var(--darkreader-text-f29190, #f18584);" data-darkreader-inline-fill=""></path><path d="m49.7416 104.938-29.4094 2.539-.1165-2.539zm-14.4949 7.667 8.6691-.933-8.4826 3.846z" fill="#222347" style="--darkreader-inline-fill: var(--darkreader-text-222347, #b2c1da);" data-darkreader-inline-fill=""></path><path d="m49.7421 60.1238v-7.2009l1.771 4.7773z" fill="#d76a67" style="--darkreader-inline-fill: var(--darkreader-text-d76a67, #d86f6c);" data-darkreader-inline-fill=""></path><path d="m45.1292 25.0752.4895.373-3.0765 4.2884-.5128-.3496zm4.4747 3.8219.303.536-5.5936 3.2863-.303-.536zm.1617 6.6648.0699.606-4.2652.4894-.0698-.6059zm83.1654 75.3031c-.303-.14-.606-.28-.909-.396 1.025-.816 1.258-2.448.513-3.519-.746-1.072-2.354-1.421-3.472-.769 1.118-1.678 2.26-3.402 2.703-5.383.419-1.9813-.023-4.2886-1.631-5.5-1.469-1.119-3.566-1.0952-5.267-.4425-1.515.5818-2.89 1.6778-3.589 3.1455-.699 1.4684-.629 3.356.373 4.638-1.235.233-2.353.955-3.123 1.957.047-.443.024-.885-.116-1.282-.374-1.072-1.562-1.841-2.68-1.631-.56.117-1.049.489-1.328.956-.164-1.678-1.399-3.2627-3.054-3.706-2.19-.5826-4.66.8158-5.499 2.913-.839 2.121-.07 4.685 1.631 6.175-1.025-.721-2.493-.768-3.565-.116-1.002.606-1.631 1.795-1.562 2.983h30.575m-19.343-15.59c0-.6757-.56-1.2352-1.235-1.2352-.676 0-1.236.5595-1.236 1.2352 0 .6758.56 1.2353 1.236 1.2353.675 0 1.235-.5357 1.235-1.2353zm-9.927 8.599c0-.372-.304-.676-.676-.676-.373 0-.676.304-.676.676 0 .373.303.676.676.676.372 0 .676-.303.676-.676z" fill="#a2dad6" style="--darkreader-inline-fill: var(--darkreader-background-a2dad6, #255c59);" data-darkreader-inline-fill=""></path><path d="m118.738 71.0146-5.407 35.0724h2.704zm-1.048 35.0724c-.513-.676 2.447-30.5283 2.447-30.5283l2.61 28.9903zm5.686-8.0167-1.212-23.2804 3.425 21.3232z" fill="#a2dad6" style="--darkreader-inline-fill: var(--darkreader-background-a2dad6, #255c59);" data-darkreader-inline-fill=""></path><path d="m120.3 67.7295c7.899 0 0 14.5881 0 14.5881s-7.9-14.5881 0-14.5881z" fill="#7199e9" style="--darkreader-inline-fill: var(--darkreader-text-7199e9, #6fabe9);" data-darkreader-inline-fill=""></path><path d="m120.3 76.654s-4.078-7.527 0-7.527 0 7.527 0 7.527z" fill="#4b5492" style="--darkreader-inline-fill: var(--darkreader-text-4b5492, #869ec1);" data-darkreader-inline-fill=""></path><path d="m114.241 66.3776 3.355-3.1693v-7.4573l-2.4 2.1906c-1.445 1.3283-2.097 3.3091-1.678 5.1968zm12.257 0 .699-3.216c.42-1.8876-.21-3.8684-1.678-5.1967l-2.4-2.1906v7.4572z" fill="#4672cc" style="--darkreader-inline-fill: var(--darkreader-text-4672cc, #5691d0);" data-darkreader-inline-fill=""></path><path d="m120.508 42.0016-.046-.0465c-2.075 2.5634-3.216 5.756-3.216 9.0652v13.3065h6.315v-13.4464c0-3.2159-1.072-6.3386-3.053-8.8788z" fill="#a2dad6" style="--darkreader-inline-fill: var(--darkreader-text-a2dad6, #99d7d2);" data-darkreader-inline-fill=""></path><path d="m117.34 49.4356h6.152c-.28-2.7032-1.305-5.2667-2.983-7.434l-.047-.0465c-1.747 2.1439-2.819 4.7539-3.122 7.4805z" fill="#4e7fe3" style="--darkreader-inline-fill: var(--darkreader-text-4e7fe3, #579ce4);" data-darkreader-inline-fill=""></path><path d="m122.514 53.2347c0-1.2119-.979-2.1908-2.191-2.1908s-2.167 1.0022-2.167 2.1908c0 1.1887.979 2.1909 2.19 2.1909 1.212 0 2.168-.9789 2.168-2.1909z" fill="#74c8c1" style="--darkreader-inline-fill: var(--darkreader-text-74c8c1, #79cac3);" data-darkreader-inline-fill=""></path><path d="m121.955 53.2342c0-.8857-.723-1.6082-1.609-1.6082-.885 0-1.608.7225-1.608 1.6082s.723 1.6082 1.608 1.6082c.886 0 1.609-.6992 1.609-1.6082z" fill="#fffffe" style="--darkreader-inline-fill: var(--darkreader-text-fffffe, #ffffcb);" data-darkreader-inline-fill=""></path><path d="m122.514 59.4565c0-1.2119-.979-2.1909-2.191-2.1909s-2.167.979-2.167 2.1909.979 2.1908 2.19 2.1908c1.212 0 2.168-.9789 2.168-2.1908z" fill="#73c8c0" style="--darkreader-inline-fill: var(--darkreader-text-73c8c0, #78cac2);" data-darkreader-inline-fill=""></path><path d="m121.955 59.4568c0-.8856-.723-1.6082-1.609-1.6082-.885 0-1.608.7226-1.608 1.6082 0 .8857.723 1.6082 1.608 1.6082.886 0 1.609-.7225 1.609-1.6082z" fill="#fffffe" style="--darkreader-inline-fill: var(--darkreader-text-fffffe, #ffffcb);" data-darkreader-inline-fill=""></path><path d="m117.247 64.3271-1.189 4.3113h8.459l-.955-4.3113z" fill="#4e7fe3" style="--darkreader-inline-fill: var(--darkreader-text-4e7fe3, #579ce4);" data-darkreader-inline-fill=""></path><path d="m123.865 65.6786-.303-1.3516h-6.315l-.373 1.3516zm-6.246-17.8974c-.116.536-.209 1.0721-.279 1.6313h6.152c-.047-.5592-.14-1.0953-.256-1.6313z" fill="#4672cc" style="--darkreader-inline-fill: var(--darkreader-text-4672cc, #5691d0);" data-darkreader-inline-fill=""></path><path d="m199.504 35.1744-.698-3.682-1.562-2.4702.279-.6525 1.376 1.0254.815-4.1948 2.005-.1398s-.14 4.4045.978 9.8342zm-25.286 5.6629s-2.377 5.7327-.978 6.7814c.606.4661 1.421.6758 1.421.6758s-.07 3.0062-1.911 4.8472c-3.915 7.6204 8.576 6.828 7.667-.9088l2.004-6.9445-4.917-7.1776z" fill="#f9c8c7" style="--darkreader-inline-fill: var(--darkreader-background-f9c8c7, #500a09);" data-darkreader-inline-fill=""></path><path d="m180.419 52.2562s-2.19-1.1885-1.398-4.5908c3.029-1.3283 2.89-3.5656-.163-2.0973.862-4.3812-2.703-3.6122-2.284-6.4786l-2.354 1.7478c.699-2.0274 3.03-3.8917 5.267-3.3091.676.1631 1.235.6292 1.654 1.1885.607.8157.56 2.0507 1.282 2.7032.629.5593 1.375.2098 2.051.4661 1.096.4195 1.468 1.4682 1.421 2.5402-.046 1.002-.372 1.9574.723 2.4935.489.233 1.072.3262 1.561.5826 1.166.6058 1.096 1.4681 1.096 2.54.023 1.1886 1.188 1.7944 1.911 2.5635 1.281 1.3749 1.398 3.6354.419 5.2201-.979 1.5846-2.936 2.4935-4.801 2.377-1.864-.0932-3.635-1.1186-4.823-2.5868-1.212-1.3982-1.376-3.4956-1.562-5.3599z" fill="#ef7674" style="--darkreader-inline-fill: var(--darkreader-text-ef7674, #ef7270);" data-darkreader-inline-fill=""></path><path d="m139.73 36.13-.723-3.6821s1.095-3.3091.723-3.7519c-.373-.4428-1.328 1.4915-1.328 1.4915l-1.049-3.752-1.911.606s.279 4.5442 1.258 9.9973z" fill="#f9c8c7" style="--darkreader-inline-fill: var(--darkreader-text-f9c8c7, #f6abaa);" data-darkreader-inline-fill=""></path><path d="m177.203 166.421-.536 7.527h-6.805l3.658-2.633.444-6.036z" fill="#2f3061" style="--darkreader-inline-fill: var(--darkreader-text-2f3061, #a2b4d2);" data-darkreader-inline-fill=""></path><path d="m167.346 41.7224.023.4661-4.312.2797-.023-.4662zm-3.194-4.8939 3.636 1.4451-.163.4428-3.636-1.445zm3.892-4.5209 1.958 2.7968-.373.2797-1.981-2.7968z" fill="#a2dad6" style="--darkreader-inline-fill: var(--darkreader-text-a2dad6, #99d7d2);" data-darkreader-inline-fill=""></path><path d="m169.862 99.5858 2.913 68.1632h5.499s5.71-50.592 4.126-61.615c0 0 3.938 35.002 14.355 31.857 6.431-1.935 7.27-15.777 8.249-29.806l-3.146-.792-5.173 19.575c.116-11.629-.303-22.512-1.515-32.2532z" fill="#4b5492" style="--darkreader-inline-fill: var(--darkreader-background-4b5492, #3c4375);" data-darkreader-inline-fill=""></path><path d="m187.434 53.0484 13.306 5.6396c-.979-7.2709-1.561-15.4505-1.981-23.9797l3.916-.6292s4.59 23.8166 4.637 23.933c1.258 6.3154-2.587 8.9953-7.294 8.1797l-7.853-1.3516c1.84 11.3026 4.24 29.759 4.24 29.759l-26.52 4.9871-1.095-28.8502c-3.215-1.9575-2.843-6.6883-2.843-6.6883s-6.991.5127-16.056-4.1247c-8.763-4.4744-13.19-22.8844-13.19-22.8844l3.053-.9089s5.942 13.7726 12.118 17.2682c6.152 3.4955 20.926-.2331 20.926-.2331-2.446 6.5717 6.037 5.6396 7.667-.9088-.046 0 3.892-.8622 6.969.7923z" fill="#17a398" style="--darkreader-inline-fill: var(--darkreader-background-17a398, #12827a);" data-darkreader-inline-fill=""></path><path d="m171.981 53.3511c-.442.8156-1.748 5.29 2.448 5.4531 3.938-.1864 6.594-3.1927 7.409-6.7349l-1.421.1865c-1.864 6.525-9.927 7.2475-7.667.9089z" fill="#fffffe" style="--darkreader-inline-fill: var(--darkreader-text-fffffe, #ffffcb);" data-darkreader-inline-fill=""></path><path d="m201.858 107.392 1.281-5.289 6.223 1.235-3.752 1.397-.607 3.427z" fill="#2f3061" style="--darkreader-inline-fill: var(--darkreader-text-2f3061, #a2b4d2);" data-darkreader-inline-fill=""></path><path d="m174.663 48.3177 1.305.5127-1.398.3497zm4.241-1.6544c-.046 0-.07-.0234-.093-.0467-.023-.0466-.023-.1165.047-.1631l1.444-.8624c.047-.0233.117-.0233.163.0466.024.0467.024.1166-.046.1632l-1.445.8624z" fill="#f29190" style="--darkreader-inline-fill: var(--darkreader-text-f29190, #f18584);" data-darkreader-inline-fill=""></path><path d="m179.673 47.805c0-.3497-.28-.6527-.652-.6527-.35 0-.653.2797-.653.6527 0 .3495.28.6525.653.6525.372 0 .652-.2796.652-.6525z" fill="#fffffe" style="--darkreader-inline-fill: var(--darkreader-text-fffffe, #ffffcb);" data-darkreader-inline-fill=""></path><path d="m176.991 43.3537c0-.2098-.162-.373-.372-.373s-.373.1632-.373.373c0 .2097.163.3729.373.3729s.372-.1632.372-.3729zm-2.399-.3963c0-.2098-.163-.3496-.35-.3496-.209 0-.349.1631-.349.3496s.163.3496.349.3496c.187.0233.35-.1398.35-.3496zm2.866-.2795c-.07 0-.116-.0466-.116-.1166-.024-.1864-.094-.3262-.257-.4195-.187-.1165-.419-.1165-.652-.0233-.047.0233-.117 0-.164-.0699-.046-.0699 0-.1165.071-.1632.279-.1398.605-.1165.862.0233.21.1399.349.3497.373.606.023.0932-.024.1399-.117.1632.023 0 .023 0 0 0zm-2.587-.6992c-.046 0-.093-.0233-.116-.07-.047-.163-.163-.2563-.326-.303-.187-.0465-.42.0234-.607.1865-.046.0467-.116.0467-.163 0-.046-.0465-.046-.1165 0-.1631.233-.2098.536-.303.816-.2331.233.0699.396.2331.489.4662.024.0699-.023.1165-.07.1398 0-.0233-.023-.0233-.023-.0233z" fill="#101514" style="--darkreader-inline-fill: var(--darkreader-text-101514, #dcd9d5);" data-darkreader-inline-fill=""></path><path d="m174.499 45.3578c-.024 0-.07 0-.094-.0233l-.559-.5361 1.026-1.6548c.023-.0466.116-.0698.163-.0466.046.0233.069.1166.046.1632l-.909 1.4916.42.4196c.047.0465.047.1165 0 .1631-.023 0-.07.0233-.093.0233z" fill="#f29190" style="--darkreader-inline-fill: var(--darkreader-text-f29190, #f18584);" data-darkreader-inline-fill=""></path><path d="m173.521 45.8477c.653.303 1.375.4894 2.284.4661 0 0-.303 1.0721-1.305.8857-1.095-.1865-.979-1.3518-.979-1.3518z" fill="#6e6f73" style="--darkreader-inline-fill: var(--darkreader-text-6e6f73, #a1998d);" data-darkreader-inline-fill=""></path><path d="m173.543 46.1737c.699.2564 1.422.3729 2.168.4195.07-.1398.116-.2564.116-.2564l-2.284-.4661c-.023-.0233-.023.1165 0 .303z" fill="#fffffe" style="--darkreader-inline-fill: var(--darkreader-text-fffffe, #ffffcb);" data-darkreader-inline-fill=""></path><path d="m165.923 64.0481s.257-2.0277.956-3.7756c0 0-2.121 2.1209-2.191 3.729z" fill="#12827a" style="--darkreader-inline-fill: var(--darkreader-text-12827a, #77ece4);" data-darkreader-inline-fill=""></path><path d="m195.403 96.6033-.233-1.864-25.308 4.8471z" fill="#2f3061" style="--darkreader-inline-fill: var(--darkreader-text-2f3061, #a2b4d2);" data-darkreader-inline-fill=""></path><path d="m182.866 106.134h-5.244l5.244 2.028zm13.818 20.834v2.587s.979-1.422.373-4.009z" fill="#2e2f61" style="--darkreader-inline-fill: var(--darkreader-text-2e2f61, #a2b4d3);" data-darkreader-inline-fill=""></path><path d="m200.74 58.6876 1.119 3.7524-4.335-5.1275zm-8.599 6.1521-3.053-.5128 3.379 2.5405z" fill="#12827a" style="--darkreader-inline-fill: var(--darkreader-text-12827a, #77ece4);" data-darkreader-inline-fill=""></path><path d="m198.876 29.5114h1.747v-.2331h-1.747z" fill="#f29190" style="--darkreader-inline-fill: var(--darkreader-text-f29190, #f18584);" data-darkreader-inline-fill=""></path></g></g></svg>
