<svg width="155" height="231" fill="none" xmlns="http://www.w3.org/2000/svg"><ellipse opacity=".3" cx="77.162" cy="214.7" rx="77.162" ry="16.3" fill="#999BA0" style="--darkreader-inline-fill: var(--darkreader-background-999ba0, #50565a);" data-darkreader-inline-fill=""></ellipse><path fill-rule="evenodd" clip-rule="evenodd" d="M12.289 156.628L3.892 125.24c-2.292-8.654-1-17.6 3.682-25.221 4.715-7.62 12.142-12.82 20.893-14.66A32.19 32.19 0 0162.86 100.6c.452.742.968 1.679 6.587 19.634 2.68 8.622 5.296 17.115 5.296 17.179l-9.881 3.003c-4.618-15.145-10.01-32.292-11.044-34.779-4.747-7.976-14.08-12.077-23.25-10.172-5.943 1.26-10.98 4.779-14.177 9.946-3.197 5.167-4.07 11.27-2.52 17.148l8.397 31.388-9.978 2.68z" fill="#74C8C1" style="--darkreader-inline-fill: var(--darkreader-background-74c8c1, #2f7873);" data-darkreader-inline-fill=""></path><path fill-rule="evenodd" clip-rule="evenodd" d="M15.066 144.648L3.02 150.493s11.044 78.051 64.068 58.223l-52.023-64.068z" fill="#17A398" style="--darkreader-inline-fill: var(--darkreader-background-17a398, #12827a);" data-darkreader-inline-fill=""></path><path fill-rule="evenodd" clip-rule="evenodd" d="M15.066 144.648l65.78-15.501s42.69 57.158-5.845 77.147c-48.568 19.957-59.935-61.646-59.935-61.646z" fill="#A2DAD6" style="--darkreader-inline-fill: var(--darkreader-background-a2dad6, #255c59);" data-darkreader-inline-fill=""></path><path fill-rule="evenodd" clip-rule="evenodd" d="M27.272 151.946c.84 4.973 6.33 33.649 22.282 42.884 6.233 3.617 13.434 3.811 21.346.646 8.686-3.487 14.08-8.848 16.017-15.92 4.327-15.726-9.43-35.489-11.69-38.59l-47.955 10.98zm33.035 47.373c-4.1 0-7.943-1.033-11.528-3.1-9.494-5.49-15.307-17.406-18.504-26.415-3.455-9.72-4.682-18.278-4.714-18.342l-.097-.743 50.473-11.561.323.42c.032.064 4.327 5.683 7.976 13.401 3.391 7.169 6.846 17.664 4.295 27.029-2.099 7.621-7.815 13.337-16.986 17.018-3.94 1.518-7.685 2.293-11.238 2.293z" fill="#FFFFFE" style="--darkreader-inline-fill: var(--darkreader-background-fffffe, #272700);" data-darkreader-inline-fill=""></path><path fill-rule="evenodd" clip-rule="evenodd" d="M53.3 153.141c8.17-2.907 14.273 9.397 10.237 17.244l6.975 11.399-13.886 4.166v-14.112c-6.781-2.939-11.496-15.791-3.326-18.697zM92.64 14.241c.16-.323.258-.646.258-1.033a2.233 2.233 0 00-2.228-2.229c-.356 0-.71.097-1.002.227.162.355.291.742.453 1.098.161-.097.355-.162.58-.162a1.04 1.04 0 011.034 1.033c0 .55-.387.97-.904 1.034.13.387.258.742.388 1.13.193-.032.387-.13.58-.226l1.938 1.938-1.26 1.259.905.904 1.26-1.26.484.485-1.13 1.13.904.905 2.002-2.1-4.263-4.133z" fill="#74C8C1" style="--darkreader-inline-fill: var(--darkreader-background-74c8c1, #2f7873);" data-darkreader-inline-fill=""></path><path fill-rule="evenodd" clip-rule="evenodd" d="M81.563 14.273c-.452 0-.84-.226-1.001-.646a1.026 1.026 0 01.613-1.356c.356-.129.743-.064 1.034.13.194-.356.42-.679.71-1.002a2.325 2.325 0 00-2.163-.226c-1.195.452-1.776 1.776-1.324 2.907.129.355.355.645.613.871l-2.39 5.167 2.68 1.195.42-.872-.677-.323.225-.646.485.226.549-1.194-1.26-.55 1.163-2.518c.097 0 .226.032.323 0a3.511 3.511 0 010-1.163z" fill="#4B5492" style="--darkreader-inline-fill: var(--darkreader-text-4b5492, #869ec1);" data-darkreader-inline-fill=""></path><path fill-rule="evenodd" clip-rule="evenodd" d="M87.795 16.502a2.242 2.242 0 00-.323-3.133 2.117 2.117 0 00-1.356-.484c.032.387 0 .807-.032 1.195.226 0 .452.064.645.226.453.355.517 1.033.162 1.485a1.103 1.103 0 01-1.292.29c-.129.356-.29.743-.484 1.066.194.097.387.162.581.194l.452 3.455-.775.097.13 1.292.774-.097.065.678-1.582.162.129 1.291 2.874-.387-.808-6.717c.291-.13.582-.355.84-.613z" fill="#2E2F61" style="--darkreader-inline-fill: var(--darkreader-text-2e2f61, #a2b4d3);" data-darkreader-inline-fill=""></path><path fill-rule="evenodd" clip-rule="evenodd" d="M86.052 3.875a5.299 5.299 0 00-5.296 5.296 5.3 5.3 0 005.296 5.296c2.906 0 5.295-2.39 5.295-5.296s-2.39-5.296-5.295-5.296zm0 11.884c-3.65 0-6.588-2.971-6.588-6.588s2.939-6.588 6.588-6.588 6.587 2.971 6.587 6.588c0 3.65-2.97 6.588-6.587 6.588z" fill="#A2DAD6" style="--darkreader-inline-fill: var(--darkreader-text-a2dad6, #99d7d2);" data-darkreader-inline-fill=""></path><path fill-rule="evenodd" clip-rule="evenodd" d="M74.33 2.228L82.08 0l1.873 3.23h1.453l.452 1.517-9.107 1.485-2.422-4.004z" fill="#F9C8C7" style="--darkreader-inline-fill: var(--darkreader-text-f9c8c7, #f6abaa);" data-darkreader-inline-fill=""></path><path fill-rule="evenodd" clip-rule="evenodd" d="M81.175 3.39h2.778v-.322h-2.778v.323z" fill="#F29190" style="--darkreader-inline-fill: var(--darkreader-text-f29190, #f18584);" data-darkreader-inline-fill=""></path><path fill-rule="evenodd" clip-rule="evenodd" d="M103.877 200.149l1.937 15.016-9.041-2.906 3.713-1.938-1.776-11.302 5.167 1.13zM131.326 199.019l1.614 14.855-8.719-2.422 4.36-2.261-1.938-10.172h4.683z" fill="#101514" style="--darkreader-inline-fill: var(--darkreader-background-101514, #0d1110);" data-darkreader-inline-fill=""></path><path fill-rule="evenodd" clip-rule="evenodd" d="M95.222 113.896l-5.07 43.304c-.355 2.907-.225 5.845.291 8.719l6.814 36.006h7.75l-.646-40.688 12.917-36.814v33.972c0 1.873.194 3.778.549 5.619l7.524 37.911h8.397l-1.938-37.782s11.948-38.751 7.104-59.741l-43.691 9.494z" fill="#EF7674" style="--darkreader-inline-fill: var(--darkreader-background-ef7674, #81110f);" data-darkreader-inline-fill=""></path><path fill-rule="evenodd" clip-rule="evenodd" d="M95.545 34.456S78.365 63.23 79.82 73.886c1.453 10.656 22.12-2.261 22.12-2.261l-6.394-37.169z" fill="#4672CC" style="--darkreader-inline-fill: var(--darkreader-background-4672cc, #2a4e97);" data-darkreader-inline-fill=""></path><path fill-rule="evenodd" clip-rule="evenodd" d="M110.626 10.237h-1.614l-3.972 9.365 1.194.742-.678 3.843c-.064.29 0 .614.162.872.193.323.549.517.936.549l2.519.162 1.227 6.264h10.108l-3.972-10.204.097-11.626h-6.007" fill="#F9C8C7" style="--darkreader-inline-fill: var(--darkreader-text-f9c8c7, #f6abaa);" data-darkreader-inline-fill=""></path><path fill-rule="evenodd" clip-rule="evenodd" d="M109.012 22.605l-5.942 1.84-3.359 4.457 3.359 1.55 3.552-3.1-.84-2.067 3.23-1.711v-.97z" fill="#F5ADAC" style="--darkreader-inline-fill: var(--darkreader-text-f5adac, #f39997);" data-darkreader-inline-fill=""></path><path fill-rule="evenodd" clip-rule="evenodd" d="M99.711 28.902l-4.166 5.554 6.717.743 2.228-4.747-4.779-1.55z" fill="#4672CC" style="--darkreader-inline-fill: var(--darkreader-text-4672cc, #5691d0);" data-darkreader-inline-fill=""></path><path fill-rule="evenodd" clip-rule="evenodd" d="M74.33 2.228l2.906 4.004S69.808 21.668 67.87 37.46c0 0 40.043-7.524 48.213-6.878 8.17.646 29.709 1.518 25.608 78.794l-46.502 4.521-1.033-63.52s-39.17 9.462-38.525-9.267c.614-18.73 18.697-38.88 18.697-38.88z" fill="#4E7FE3" style="--darkreader-inline-fill: var(--darkreader-background-4e7fe3, #184196);" data-darkreader-inline-fill=""></path><path fill-rule="evenodd" clip-rule="evenodd" d="M67.87 37.46l-4.391.645 4.844-3.649-.452 3.003z" fill="#4672CC" style="--darkreader-inline-fill: var(--darkreader-text-4672cc, #5691d0);" data-darkreader-inline-fill=""></path><path fill-rule="evenodd" clip-rule="evenodd" d="M112.79 20.021h-1.389s.42-8.17 1.841-8.719c0 0-6.006.614-6.458-2.583-.517-3.488 3.455-4.424 4.973-2.067 0 0 8.137.033 6.975 4.134 0 0-.032 6.361-1.873 11.851l-1.905-1.066-2.164-1.55z" fill="#2E2F61" style="--darkreader-inline-fill: var(--darkreader-text-2e2f61, #a2b4d3);" data-darkreader-inline-fill=""></path><path fill-rule="evenodd" clip-rule="evenodd" d="M112.144 20.312c.387-.581.807-1.195 1.356-1.55s1.324-.355 1.744.194c.484.613.355 1.679-.097 2.325-.452.646-1.13 1-1.776 1.324" fill="#F9C8C7" style="--darkreader-inline-fill: var(--darkreader-text-f9c8c7, #f6abaa);" data-darkreader-inline-fill=""></path><path fill-rule="evenodd" clip-rule="evenodd" d="M112.919 21.41c-.065 0-.097-.032-.129-.065-.065-.064-.032-.161.032-.226l1.841-1.388c.064-.065.161-.033.226.032.064.065.032.161-.032.226l-1.841 1.389c-.032.032-.065.032-.097.032z" fill="#F29190" style="--darkreader-inline-fill: var(--darkreader-text-f29190, #f18584);" data-darkreader-inline-fill=""></path><path fill-rule="evenodd" clip-rule="evenodd" d="M109.528 15.759a.647.647 0 00-.646-.646.647.647 0 00-.645.646c0 .355.29.646.645.646.356 0 .646-.291.646-.646zM110.917 14.951h-3.326a.255.255 0 01-.259-.258c0-.161.097-.258.259-.258h3.326c.129 0 .258.097.258.258a.255.255 0 01-.258.258z" fill="#101514" style="--darkreader-inline-fill: var(--darkreader-text-101514, #dcd9d5);" data-darkreader-inline-fill=""></path><path fill-rule="evenodd" clip-rule="evenodd" d="M95.223 113.896h44.854l-.323-4.327-44.531 4.327zM117.279 124.423h11.108l-11.108 3.875v-3.875z" fill="#C54B4B" style="--darkreader-inline-fill: var(--darkreader-background-c54b4b, #932f2f);" data-darkreader-inline-fill=""></path><path fill-rule="evenodd" clip-rule="evenodd" d="M93.317 50.57l8.623-1.711-8.235 5.845-.388-4.134z" fill="#4672CC" style="--darkreader-inline-fill: var(--darkreader-text-4672cc, #5691d0);" data-darkreader-inline-fill=""></path><path fill-rule="evenodd" clip-rule="evenodd" d="M109.173 25.77h2.196l-2.067.774" fill="#F29190" style="--darkreader-inline-fill: var(--darkreader-text-f29190, #f18584);" data-darkreader-inline-fill=""></path><path fill-rule="evenodd" clip-rule="evenodd" d="M90.67 14.273a1.04 1.04 0 01-1.034-1.033c0-.355.194-.71.485-.872.129-.484-.033-.872-.453-1.098-.742.355-1.227 1.13-1.227 2.002A2.233 2.233 0 0090.67 15.5c.161 0 .355-.032.516-.064.226-.388.226-.775-.387-1.13-.065-.033-.097-.033-.13-.033z" fill="#73C8C0" style="--darkreader-inline-fill: var(--darkreader-text-73c8c0, #78cac2);" data-darkreader-inline-fill=""></path><path fill-rule="evenodd" clip-rule="evenodd" d="M82.887 11.367c-.452.032-.71.355-.71 1.001.161.097.29.258.355.452a1.026 1.026 0 01-.614 1.357c-.129.032-.258.064-.387.064-.452.42-.29.807 0 1.195.258 0 .549-.065.807-.162 1.195-.452 1.776-1.776 1.324-2.906-.13-.42-.42-.743-.775-1.001z" fill="#4B5492" style="--darkreader-inline-fill: var(--darkreader-text-4b5492, #869ec1);" data-darkreader-inline-fill=""></path><path fill-rule="evenodd" clip-rule="evenodd" d="M85.373 15.888c-.452-.355-.516-1.033-.161-1.486.194-.258.516-.387.84-.387.29-.484.322-.904.032-1.195-.678 0-1.324.258-1.776.84a2.242 2.242 0 00.322 3.132c.13.097.291.194.42.258.42-.258.582-.613.485-1.065-.033 0-.097-.032-.162-.097z" fill="#2E2F61" style="--darkreader-inline-fill: var(--darkreader-text-2e2f61, #a2b4d3);" data-darkreader-inline-fill=""></path></svg>
