<svg viewBox="0 0 58 19" fill="none" xmlns="http://www.w3.org/2000/svg">
  <path d="M37.769.03c-4.114 0-7.79 2.15-7.79 6.126 0 4.558 6.52 4.873 6.52 7.163 0 .965-1.096 1.828-2.966 1.828-2.655 0-4.64-1.206-4.64-1.206l-.848 4.01s2.285 1.02 5.32 1.02c4.498 0 8.038-2.257 8.038-6.3 0-4.817-6.548-5.123-6.548-7.248 0-.756.899-1.584 2.764-1.584 2.105 0 3.822.878 3.822.878l.831-3.875S40.404.03 37.769.03ZM.129.321l-.1.584s1.73.32 3.29.958c2.007.73 2.15 1.156 2.488 2.478L9.49 18.669h4.938L22.035.322h-4.927l-4.888 12.474-1.995-10.574c-.183-1.21-1.11-1.9-2.243-1.9H.129Zm23.888 0-3.865 18.347h4.698L28.701.322h-4.684Zm26.202 0c-1.133 0-1.733.612-2.174 1.68L41.163 18.67h4.926l.953-2.777h6.002l.58 2.777h4.347L54.179.322h-3.96Zm.64 4.957 1.46 6.885h-3.911l2.452-6.885Z" fill="#1434CB"/>
</svg>